HIERARCHY
ROOT Hips
{
  OFFSET -33.9132 29.2015 117.021
  CHANNELS 6 Xposition Yposition Zposition Zrotation Xrotation Yrotation
  JOINT LeftUpLeg
  {
    OFFSET 8.64259 1.95398 -2.38835
    CHANNELS 3 Zrotation Xrotation Yrotation
    JOINT LeftLeg
    {
      OFFSET 43.7702 0 0
      CHANNELS 3 Zrotation Xrotation Yrotation
      JOINT LeftFoot
      {
        OFFSET 40.6238 0 0
        CHANNELS 3 Zrotation Xrotation Yrotation
        JOINT LeftToeBase
        {
          OFFSET 12.7242 0 0
          CHANNELS 3 Zrotation Xrotation Yrotation
          End Site
          {
            OFFSET 0 0 0
          }
        }
      }
    }
  }
  JOINT RightUpLeg
  {
    OFFSET -8.2249 1.95398 -2.59336
    CHANNELS 3 Zrotation Xrotation Yrotation
    JOINT RightLeg
    {
      OFFSET 43.5653 0 0
      CHANNELS 3 Zrotation Xrotation Yrotation
      JOINT RightFoot
      {
        OFFSET 40.6238 0 0
        CHANNELS 3 Zrotation Xrotation Yrotation
        JOINT RightToeBase
        {
          OFFSET 12.7242 0 0
          CHANNELS 3 Zrotation Xrotation Yrotation
          End Site
          {
            OFFSET 0 0 0
          }
        }
      }
    }
  }
  JOINT Spine
  {
    OFFSET 0.165834 0.87714 6.61349
    CHANNELS 3 Zrotation Xrotation Yrotation
    JOINT Spine1
    {
      OFFSET 7.38963 1.71661e-005 0
      CHANNELS 3 Zrotation Xrotation Yrotation
      JOINT Spine2
      {
        OFFSET 11.9445 1.14441e-005 0
        CHANNELS 3 Zrotation Xrotation Yrotation
        JOINT Spine3
        {
          OFFSET 14.7254 4.19617e-005 0
          CHANNELS 3 Zrotation Xrotation Yrotation
          JOINT Spine4
          {
            OFFSET 10.9679 0 0
            CHANNELS 3 Zrotation Xrotation Yrotation
            JOINT RightShoulder
            {
              OFFSET 2.46616 -1.6653 3.69651
              CHANNELS 3 Zrotation Xrotation Yrotation
              JOINT RightArm
              {
                OFFSET 13.0012 0 0
                CHANNELS 3 Zrotation Xrotation Yrotation
                JOINT RightForeArm
                {
                  OFFSET 28.7848 1.62311e-005 0
                  CHANNELS 3 Zrotation Xrotation Yrotation
                  JOINT RightHand
                  {
                    OFFSET 26.5688 1.62095e-005 0
                    CHANNELS 3 Zrotation Xrotation Yrotation
                    End Site
                    {
                      OFFSET 0 0 0
                    }
                  }
                }
              }
            }
            JOINT LeftShoulder
            {
              OFFSET 2.38034 -1.29275 -3.7523
              CHANNELS 3 Zrotation Xrotation Yrotation
              JOINT LeftArm
              {
                OFFSET 16.3182 6.07031e-005 0
                CHANNELS 3 Zrotation Xrotation Yrotation
                JOINT LeftForeArm
                {
                  OFFSET 27.0901 0 0
                  CHANNELS 3 Zrotation Xrotation Yrotation
                  JOINT LeftHand
                  {
                    OFFSET 24.5451 1.51738e-005 0
                    CHANNELS 3 Zrotation Xrotation Yrotation
                    End Site
                    {
                      OFFSET 0 0 0
                    }
                  }
                }
              }
            }
            JOINT Neck
            {
              OFFSET 5.0226 -0.0266342 0
              CHANNELS 3 Zrotation Xrotation Yrotation
              JOINT Head
              {
                OFFSET 6.69364 2.86102e-005 0
                CHANNELS 3 Zrotation Xrotation Yrotation
                End Site
                {
                  OFFSET 0 0 0
                }
              }
            }
          }
        }
      }
    }
  }
}
MOTION
Frames:	17
Frame Time:	0.0416667
18.9083 93.9792 40.1106 83.8222 -47.6746 89.1233 -167.153 -3.45111 88.7673 -76.8061 0.857671 0.249424 53.0592 -4.8738 3.80058 21.2516 0.272675 -7.64541 179.652 35.8605 97.3789 -33.9071 -14.7933 -0.0407335 64.9331 -2.98381 -0.0984228 22.391 1.74735 3.90867 -0.72527 7.76498 -91.178 11.3209 -1.99217 -2.14708 -0.350152 -2.08473 -2.05735 -22.8769 -1.25505 -2.6463 -2.86422 -1.25505 -2.64629 91.0528 -23.1422 -107.365 30.31 4.11277 2.6579 -4.66861 -0.56214 -79.8407 -11.1444 2.05825 -27.4493 -91.2108 -45.6692 75.8602 -9.24681 -11.576 -39.854 153.914 64.2398 -153.969 30.4362 -25.1295 -81.6319 15.0125 9.64277 4.6282 -8.73462 8.07785 1.32724 
24.1385 92.6719 45.1304 84.894 -46.6587 89.2644 -164.445 3.3502 88.5877 -88.1863 -6.51353 1.69725 56.9875 -1.58882 5.82235 18.7093 -0.807978 -7.47774 177.958 36.6542 97.2153 -44.7009 -17.2771 0.0123281 67.5951 -5.12534 -2.90314 11.6335 4.58511 8.39115 -0.462172 7.84612 -91.0729 11.1649 -1.41845 -1.99726 -0.506766 -1.50494 -1.93293 -23.0318 -0.752785 -2.33105 -3.0191 -0.752794 -2.33105 91.0194 -21.8506 -108.025 29.5104 5.77978 0.771375 -3.58786 -0.318773 -79.4604 -12.5141 2.16863 -25.9258 -91.922 -46.8192 75.054 -9.35975 -12.9099 -43.8034 129.427 77.2566 -132.315 20.842 -21.3303 -92.754 14.7775 8.4946 5.76752 -7.08068 6.72088 0.176643 
28.8285 90.6834 49.8931 84.6068 -45.9366 90.6829 -163.396 14.0956 90.546 -100.162 -7.0906 3.49368 59.9116 0.459375 7.40171 15.4422 -1.72657 -8.1691 176.655 36.4073 99.5528 -53.5115 -14.2056 0.210497 74.172 -10.5758 -2.82215 22.2916 1.58126 4.62583 -0.0500866 7.95248 -91.2168 10.956 -0.662918 -2.3579 -0.716898 -0.766002 -2.32647 -23.2349 0.0761489 -2.44808 -3.22223 0.0761533 -2.44807 91.0451 -21.0692 -108.328 28.3696 8.29796 -1.99065 -2.60961 -0.0860788 -78.9951 -12.4552 1.99608 -24.3279 -92.4566 -47.9493 74.5352 -10.3304 -14.355 -47.7373 23.7683 69.3588 -31.1513 5.31786 -5.54814 -102.552 16.6579 7.25548 6.22505 -6.08952 5.28328 0.0746186 
33.2508 89.7809 54.8339 84.5205 -44.2448 92.6606 -165.935 25.5849 91.5154 -109.087 1.49023 4.38514 60.8 2.04767 11.6764 11.5276 -2.68826 -9.25409 174.197 32.5434 101.637 -56.3905 -12.8272 1.3897 79.8513 -15.2096 -3.79056 22.2372 0.683158 7.58777 0.258929 8.05727 -91.3725 10.75 -0.117292 -2.71843 -0.923797 -0.236752 -2.71065 -23.4372 0.704856 -2.62815 -3.42452 0.704859 -2.62814 90.8263 -21.2556 -108.735 27.7701 9.3183 -4.46424 4.10957 1.40094 -80.0498 -16.3057 1.83717 -18.7007 -92.6169 -47.2004 74.0902 -12.6563 -15.279 -50.9753 -0.790817 30.7319 -15.1826 -10.3918 4.04729 -80.2701 19.1042 5.77116 5.28159 -6.37697 3.95724 0.55929 
38.602 89.2683 60.3145 85.0292 -41.6167 92.4074 -169.879 33.8307 90.4125 -112.748 7.37587 4.48032 64.3443 4.96831 12.8306 11.1186 -1.97636 -10.7076 172.93 26.4949 100.389 -57.3002 -11.5084 1.92887 85.0444 -18.579 -2.44578 25.8082 0.112751 4.56827 0.330684 8.16628 -91.3396 10.5342 0.0437282 -2.66607 -1.13949 -0.0736213 -2.66542 -23.6543 0.842718 -2.52984 -3.64167 0.842716 -2.52985 91.0635 -18.9639 -109.321 26.8195 12.2988 -6.32298 1.60599 1.15558 -76.6964 -13.4761 1.78134 -21.042 -91.632 -47.5949 75.6996 -14.398 -14.7461 -54.0942 -8.17916 6.66892 -15.1073 -18.8598 8.92177 -61.1288 21.2423 4.928 6.63068 -7.5309 2.65319 -1.03414 
44.2592 88.9152 66.1412 85.705 -38.678 91.2749 -173.059 40.3602 88.3101 -112.191 8.4498 4.43258 68.7801 7.62088 11.8108 16.0385 0.170888 -11.2055 172.345 18.8785 98.7539 -55.7931 -8.19913 2.08345 89.8755 -22.5917 -2.8704 27.1749 -0.854587 6.14337 0.442945 8.19381 -91.1045 10.4855 0.375431 -2.22872 -1.1873 0.277018 -2.24307 -23.7099 1.02777 -2.013 -3.69723 1.02778 -2.01301 90.8603 -19.351 -109.603 26.0853 14.3742 -6.48566 2.14497 1.55562 -74.4258 -13.1776 1.85567 -22.0772 -91.1727 -46.2485 76.0668 -17.8332 -13.1411 -55.521 -11.2541 -4.17515 -16.5264 -16.5217 5.1556 -45.7304 20.9935 2.64371 5.64592 -7.03786 0.784755 -1.36756 
50.0967 89.5306 72.1181 84.741 -37.0973 87.865 -171.905 46.0905 83.642 -106.592 6.20458 4.08654 72.0161 9.38657 10.2248 22.3951 0.203696 -6.5912 171.584 12.5898 95.7031 -52.3 -10.4551 2.0949 88.0091 -22.069 -5.37108 31.7779 -2.3627 4.62613 0.609448 8.01985 -90.6696 10.8391 0.904145 -1.41873 -0.832376 0.840846 -1.45714 -23.3661 1.28869 -1.08145 -3.35347 1.28871 -1.08145 90.0145 -21.117 -110.655 25.5815 15.6669 -5.27549 4.11279 2.37514 -73.3141 -13.5063 1.8039 -21.2261 -90.7763 -46.4624 76.7347 -17.4589 -11.2389 -56.1763 -13.2552 -8.62385 -16.0961 -16.2067 4.29382 -40.3328 19.5037 0.409511 4.02441 -6.28166 -0.792695 -1.642 
56.3899 90.7674 78.5241 84.8823 -36.3941 85.6728 -169.89 48.5336 79.9741 -97.9518 3.99901 3.2846 75.5906 11.2042 8.72971 23.7737 -0.200924 -4.49955 171.719 3.96476 95.3535 -46.2697 -12.4176 1.62643 81.312 -18.0462 -9.04792 37.9017 -5.01924 6.30184 0.851702 7.93025 -90.2628 11.0185 1.57374 -0.673156 -0.651662 1.54261 -0.741782 -23.1943 1.70328 -0.168935 -3.18166 1.70329 -0.168935 89.5422 -22.7639 -110.878 25.9199 14.8917 -4.44827 7.65861 3.97598 -71.8367 -15.6933 2.16922 -21.5252 -89.8441 -46.1648 78.1154 -16.1724 -8.8327 -55.9141 -15.025 -11.2437 -16.6044 -12.7054 2.7583 -35.1106 18.4873 -1.74618 1.35483 -6.59118 -2.07602 -0.634112 
62.9889 92.3612 85.2717 86.5582 -36.2227 85.0027 -169.24 48.0969 78.5418 -87.1951 3.21759 1.90691 77.5849 11.8621 6.90706 25.9781 0.646922 -4.35827 172.924 -4.53944 93.0588 -38.3326 -10.7795 0.320387 72.8547 -10.6783 -8.01397 42.2571 -7.04339 10.2151 1.1441 7.95991 -89.9143 10.9564 2.31747 -0.0495605 -0.712472 2.31303 -0.15157 -23.2633 2.22515 0.649574 -3.25066 2.22515 0.649577 88.613 -24.616 -111.963 25.4713 15.8624 -1.73825 5.80113 3.78992 -69.0148 -13.7688 2.36067 -25.5919 -88.8834 -45.4032 79.4536 -13.7945 -5.35429 -53.8495 -16.6732 -12.01 -18.0944 -10.627 2.07598 -34.4358 17.3474 -3.70516 -0.191632 -7.33769 -3.46871 -1.70368 
69.8791 94.1577 92.2314 86.6483 -36.4717 83.2064 -169.05 46.7192 77.6427 -73.9041 3.60056 -0.225761 79.1789 12.6723 5.03671 24.5929 -0.0798471 -4.01163 174.069 -11.783 91.8401 -30.8119 -12.5669 -1.71384 62.2381 -1.43143 -5.02416 38.5997 -5.75973 10.0691 1.57653 7.82878 -89.502 11.2081 3.36926 0.660383 -0.458531 3.39507 0.511283 -23.0218 3.01491 1.64328 -3.00913 3.01493 1.64328 88.0919 -26.6106 -112.074 26.3697 14.4151 1.9411 11.2209 6.03459 -69.7736 -16.8966 2.89439 -25.2911 -88.3803 -43.5614 79.8605 -11.8484 -2.53878 -53.5499 -17.6137 -12.4504 -16.8521 -11.9445 2.48983 -35.1232 16.9272 -6.47545 -3.34108 -9.70373 -5.23212 -1.55418 
77.0325 95.4657 99.1417 85.3978 -35.6495 80.3738 -170.406 45.2074 76.4943 -59.1128 3.66725 -2.37394 78.9644 12.2592 2.60002 26.5384 0.126898 -2.62286 174.119 -16.4071 90.8238 -26.9477 -14.2491 -3.0812 56.7463 3.47623 -1.90477 18.7523 2.22935 7.19833 1.83326 7.64325 -89.14 11.572 4.04962 1.29462 -0.0930931 4.10265 1.11487 -22.6629 3.47323 2.4529 -2.65028 3.47323 2.45289 87.876 -26.0043 -112.818 26.7164 14.1948 6.78062 11.8635 6.50587 -69.2208 -17.2614 3.45 -28.5832 -87.8388 -42.0573 80.4149 -8.70837 1.21109 -52.6125 -18.9956 -12.8826 -16.7725 -11.6622 2.70873 -38.3756 17.5735 -8.33726 -3.517 -12.6678 -6.76878 -3.56738 
83.8802 96.0661 105.776 84.0348 -34.4576 78.609 -172.101 43.8869 76.5473 -44.7918 6.25253 -4.05926 76.0834 10.2499 0.676481 26.7891 -0.475656 -0.992249 173.992 -19.116 91.1361 -28.0363 -16.9111 -3.191 57.5786 3.12617 -2.06904 16.1149 3.08503 7.67146 2.03952 7.57495 -88.9059 11.6929 4.56986 1.70258 0.0291541 4.64036 1.49943 -22.5459 3.84688 2.99856 -2.53328 3.84686 2.99856 88.4335 -26.3184 -111.507 27.8634 12.3225 7.39023 19.9378 9.34552 -71.4336 -21.4826 4.19663 -27.8477 -87.5578 -39.774 80.4026 -6.24266 2.54275 -53.8293 -20.2146 -13.7279 -17.1235 -12.1179 3.09962 -40.6605 18.313 -10.0128 -4.09098 -13.0874 -8.10412 -4.53262 
90.6025 95.8089 111.785 82.4829 -32.4018 78.3687 -174.345 43.2924 77.0521 -32.7277 9.55503 -4.41154 73.4693 8.5428 -0.415517 28.0387 -0.543627 0.483667 175.597 -20.0795 94.4241 -32.2221 -17.198 -2.34508 59.3777 1.41973 -1.45386 20.0589 2.06403 5.97778 2.07152 7.35428 -88.9765 12.1395 4.60192 1.53354 0.476018 4.66494 1.32913 -22.1026 3.92814 2.84718 -2.08999 3.92819 2.84718 88.938 -25.4731 -110.86 29.5514 9.07311 8.27817 34.0358 11.8308 -77.2675 -28.8357 4.58594 -23.3003 -88.235 -42.0601 79.7708 -2.2033 3.31177 -52.6039 -21.8037 -14.4159 -20.2507 -13.3685 3.29388 -38.9317 16.9521 -10.5034 -1.84823 -11.6872 -9.14452 -7.00778 
96.6381 95.3239 117.728 82.3822 -30.9048 81.853 -175.686 42.5212 79.9439 -26.6976 14.5053 -4.21402 73.5987 8.7728 0.0721867 26.1634 -1.75702 1.1884 177.864 -19.9716 100.3 -38.6779 -17.3926 0.0994997 58.0662 1.80867 -0.958694 20.7214 1.25658 7.65772 2.11366 7.24063 -89.3321 12.3844 4.51733 0.819472 0.721189 4.54901 0.619459 -21.8653 4.06193 2.14125 -1.85265 4.06193 2.14125 89.178 -26.5578 -109.855 30.1346 7.97516 9.71873 35.1042 11.1568 -78.591 -30.8132 4.36198 -21.2478 -88.1882 -42.6653 79.9779 -2.74996 3.80744 -52.5782 -21.5327 -13.6124 -21.4312 -13.5917 3.38863 -39.1839 16.9223 -11.8785 -4.39351 -10.9249 -9.9922 -4.38971 
102.852 94.5605 123.49 83.6305 -28.9503 85.0035 -176.278 41.0253 81.1142 -26.5802 15.2539 -3.83443 74.3372 9.08369 -0.0598563 22.4516 -5.71107 5.53049 177.113 -19.2175 103.407 -48.512 -16.1557 2.67075 57.3308 2.21 0.312648 24.9978 -0.701128 8.70299 1.9688 7.28434 -89.7041 12.3113 4.05297 0.131303 0.646742 4.05482 -0.0475105 -21.9354 3.82584 1.34513 -1.92274 3.82586 1.34513 89.2557 -25.8751 -110.016 30.3534 8.20456 15.0229 30.5899 8.82907 -79.3748 -27.3875 4.02307 -21.9846 -88.5976 -44.6025 79.7364 -2.25159 3.90747 -52.4139 -20.893 -12.5159 -21.8981 -13.762 3.33706 -38.2145 16.9165 -12.3824 -5.03675 -10.1926 -10.3836 -3.49331 
110.033 93.2071 128.919 85.1205 -24.8963 84.7225 -178.305 37.6424 78.5723 -26.6353 11.9499 -2.35021 72.775 7.79227 -1.43538 26.377 -2.28679 2.53235 171.001 -17.8614 100.36 -61.5518 -13.8623 4.69322 60.7893 -0.0173663 1.40999 21.9409 0.554134 8.39799 1.41242 7.43083 -89.8137 12.0142 2.89605 0.0559108 0.346409 2.8957 -0.0717202 -22.2121 2.74526 0.924345 -2.19948 2.74526 0.924342 90.1663 -23.9723 -108.93 30.2747 8.83894 20.8671 21.5767 5.65719 -80.0533 -20.5067 3.49686 -25.0189 -89.7168 -47.2104 78.5495 -2.21231 2.96275 -51.0292 -20.1439 -11.7594 -23.1946 -13.6161 3.16158 -37.2172 17.3674 -11.6074 -3.24923 -9.84829 -10.0681 -4.42658 
116.214 92.6034 134.535 86.7617 -23.9771 83.8393 -177.838 36.9414 77.2596 -32.7572 15.6611 -2.55719 61.8929 0.0998961 0.807499 12.8154 -5.81799 -3.11187 164.536 -13.9812 95.7419 -75.974 -10.922 3.88741 61.1826 -1.06467 -2.11005 20.1421 0.418712 10.9319 1.07709 7.60988 -89.6367 11.6509 2.31279 0.483144 -0.0180632 2.33182 0.38082 -22.5663 2.0606 1.15614 -2.55362 2.06065 1.15615 91.4355 -24.8482 -105.811 29.5445 10.2034 23.9699 7.80577 2.13441 -80.5592 -13.1186 2.58683 -28.6301 -89.5626 -45.3408 78.3684 -6.54013 1.28244 -50.0738 -18.5613 -10.4762 -23.0512 -18.1294 4.63093 -38.2564 17.4728 -11.1918 -5.0836 -9.33092 -9.23259 -2.90181 
